<?xml version="1.0" encoding="utf-8"?>
<!-- Generator: Adobe Illustrator 16.0.0, SVG Export Plug-In . SVG Version: 6.00 Build 0)  -->
<!DOCTYPE svg PUBLIC "-//W3C//DTD SVG 1.1//EN" "http://www.w3.org/Graphics/SVG/1.1/DTD/svg11.dtd">
<svg version="1.1" id="Layer_1" xmlns="http://www.w3.org/2000/svg" xmlns:xlink="http://www.w3.org/1999/xlink" x="0px" y="0px"
	 width="256px" height="58px" viewBox="0 0 256 58" enable-background="new 0 0 256 58" xml:space="preserve">
<g>
	<g>
		<g>
			<g>
				<g>
					<path fill="#FFFFFF" d="M13.139,17.227c-1.294,0-1.664,0.186-1.664,1.203v8.274c0,0.416,0.139,3.005,0.554,3.468
						c0.51,0.554,1.988,0.878,3.467,0.878c3.513,0,6.102-2.404,6.102-6.426C21.599,20.462,18.179,17.227,13.139,17.227 M14.665,4.33
						c-3.05,0-3.189,0.416-3.189,1.34v10.032c0,0.74,0.601,0.647,1.71,0.647c2.819,0,4.762,0.278,4.762,0.278
						c1.339-1.017,2.866-1.896,2.866-5.547C20.813,8.768,18.872,4.33,14.665,4.33 M15.266,31.881c-1.941,0-3.883-0.463-5.917-0.463
						c-1.941,0-2.958,0.186-4.437,0.186c-0.463,0-0.788-0.047-0.788-0.508c0-0.463,0.279-0.556,1.295-0.556
						c2.081,0,2.173-0.092,2.173-0.785V8.49c0-3.651-0.742-4.067-2.035-4.067c-2.08,0-2.264-0.047-2.264-0.601
						c0-0.323,0.138-0.37,0.923-0.37c1.434,0,2.866,0.047,4.485,0.047c0.971,0,3.189-0.278,7.35-0.278
						c6.01,0,8.599,3.097,8.599,6.378c0,3.283-1.987,4.9-3.467,5.917c-0.878,0.601-1.896,1.11-1.896,1.249
						c0,0.092,0.879,0.322,1.804,0.785c2.172,1.11,4.9,2.682,4.9,6.704C25.991,29.432,21.692,31.881,15.266,31.881"/>
				</g>
			</g>
			<g>
				<g>
					<path fill="#FFFFFF" d="M34.536,15.577c-3.056,0-4.021,4.583-4.021,5.146c0,0.201,0,0.241,0.483,0.241
						c2.091,0,4.261-0.523,7.278-1.005c0.442-0.081,0.482-0.161,0.482-0.403C38.757,18.551,36.385,15.577,34.536,15.577
						 M40.728,20.401c-1.046,0.241-5.067,1.127-9.649,1.408c-0.645,0.04-0.766,0.24-0.766,1.166c0,5.548,4.302,7.036,7.359,7.036
						c2.653,0,4.1-0.966,4.342-0.966c0.202,0,0.321,0.242,0.321,0.322c0,0.2-3.418,2.733-6.675,2.733
						c-3.296,0-8.203-1.608-8.203-8.323c0-5.668,3.82-9.046,7.479-9.046c2.092,0,4.665,1.327,6.112,3.016
						c0.684,0.803,1.327,1.77,1.327,2.09C42.376,20,41.813,20.16,40.728,20.401"/>
				</g>
			</g>
			<g>
				<path fill="#FFFFFF" d="M55.444,19.315c-0.563,0-1.046-1.648-3.056-1.648c-2.333,0-3.216,0.964-3.216,2.654v8.282
					c0,1.971,0.12,1.971,3.095,1.971c1.046,0,1.086,0.121,1.086,0.482c0,0.443-0.04,0.402-1.086,0.402
					c-0.562,0-3.255-0.201-4.543-0.201c-1.366,0-2.733,0.201-3.296,0.201c-0.924,0-1.005,0-1.005-0.402s0.04-0.482,1.005-0.482
					c1.648,0,1.77-0.041,1.77-0.604V18.955c0-2.735,0.08-2.814-2.171-2.814c-0.723,0-0.723,0.04-0.723-0.403
					c0-0.482-0.041-0.604,0.644-0.604c1.366,0,2.129,0.081,2.935,0.081c0.642,0,1.406-0.201,2.05-0.201
					c0.162,0,0.321,0.12,0.321,0.442c0,0.201-0.08,1.085-0.08,1.207c0,0.361,0.04,0.643,0.201,0.643
					c0.603,0,2.492-2.091,4.382-2.091c0.724,0,2.572,0.885,2.572,1.93C56.327,17.547,55.683,19.315,55.444,19.315"/>
			</g>
			<g>
				<path fill="#FFFFFF" d="M74.462,31.62c-0.482,0-1.005-0.04-1.368-0.04c-0.481,0-1.688,0.04-2.25,0.04
					c-0.725,0-1.086-1.007-2.775-2.936c-1.688-1.93-3.379-4.463-3.62-4.463c-0.16,0-0.723,0.402-1.406,0.844
					c-0.643,0.401-1.207,0.685-1.207,1.046v2.533c0,1.889-0.081,1.889,2.413,1.889c0.923,0,1.085,0.202,1.085,0.523
					c0,0.402-0.2,0.402-1.085,0.402c-0.604,0-2.454-0.08-3.739-0.08c-1.368,0-2.854,0.08-3.418,0.08
					c-0.925,0-1.166-0.041-1.166-0.402c0-0.321,0.201-0.523,1.166-0.523c1.367,0,1.729,0,1.729-0.603
					c0-1.166,0.12-13.067,0.12-21.551c0-2.854-0.322-3.217-1.407-3.217c-1.648,0-1.809-0.121-1.809-0.402
					c0-0.402,0.08-0.563,0.523-0.563c2.894,0,5.266-0.885,5.628-0.885c0.202,0,0.282,0.121,0.282,0.362
					c0,0.522-0.081,2.211-0.081,3.499c0,6.111-0.242,10.614-0.242,17.167c0,0.162,0.04,0.282,0.161,0.282
					c1.005,0,5.188-3.698,6.474-4.906c1.568-1.487,1.93-2.17,1.93-3.014c0-0.644-0.121-0.724-1.89-0.724
					c-0.602,0-0.803-0.081-0.803-0.442c0-0.322,0.201-0.403,0.723-0.403c0.402,0,1.165,0.121,1.648,0.121
					c0.523,0,2.855-0.121,3.337-0.121c0.321,0,0.481,0.041,0.481,0.161c0,0.362-1.365,2.091-2.611,3.297
					c-2.011,1.971-4.505,3.74-4.505,4.021c0,0.363,0.725,1.126,3.54,4.503c1.367,1.648,2.653,3.619,4.021,3.619
					c0.964,0,1.286,0.2,1.286,0.522C75.627,31.539,75.346,31.62,74.462,31.62"/>
			</g>
			<g>
				<g>
					<path fill="#FFFFFF" d="M81.418,15.577c-3.055,0-4.02,4.583-4.02,5.146c0,0.201,0,0.241,0.482,0.241
						c2.089,0,4.261-0.523,7.277-1.005c0.441-0.081,0.483-0.161,0.483-0.403C85.641,18.551,83.269,15.577,81.418,15.577
						 M87.611,20.401c-1.046,0.241-5.066,1.127-9.651,1.408c-0.642,0.04-0.763,0.24-0.763,1.166c0,5.548,4.301,7.036,7.356,7.036
						c2.654,0,4.103-0.966,4.343-0.966c0.202,0,0.322,0.242,0.322,0.322c0,0.2-3.418,2.733-6.674,2.733
						c-3.298,0-8.203-1.608-8.203-8.323c0-5.668,3.819-9.046,7.479-9.046c2.091,0,4.663,1.327,6.111,3.016
						c0.683,0.803,1.327,1.77,1.327,2.09C89.259,20,88.696,20.16,87.611,20.401"/>
				</g>
			</g>
			<g>
				<path fill="#FFFFFF" d="M96.464,31.459c-0.604,0-1.488-0.081-2.212-0.081c-1.368,0-3.498,0.081-4.061,0.081
					c-0.925,0-1.007-0.081-1.007-0.401c0-0.282,0.042-0.524,1.007-0.524c1.647,0,2.332,0.041,2.332-0.683V7.695
					c0-2.532-0.24-2.532-2.049-2.532c-0.724,0-1.127-0.08-1.127-0.524c0-0.482,0.322-0.442,1.005-0.482
					c3.136-0.2,4.664-0.884,4.905-0.884c0.202,0,0.402,0.201,0.402,0.643c0,0.483-0.2,1.93-0.2,3.136
					c0,15.32-0.202,18.496-0.202,19.663c0,3.336,0.281,3.778,1.005,3.778c2.01,0,1.93,0.241,1.93,0.564
					C98.193,31.459,97.911,31.459,96.464,31.459"/>
			</g>
			<g>
				<g>
					<path fill="#FFFFFF" d="M104.61,15.577c-3.056,0-4.021,4.583-4.021,5.146c0,0.201,0,0.241,0.483,0.241
						c2.092,0,4.262-0.523,7.277-1.005c0.443-0.081,0.484-0.161,0.484-0.403C108.833,18.551,106.459,15.577,104.61,15.577
						 M110.803,20.401c-1.045,0.241-5.066,1.127-9.65,1.408c-0.643,0.04-0.765,0.24-0.765,1.166c0,5.548,4.303,7.036,7.359,7.036
						c2.653,0,4.101-0.966,4.342-0.966c0.202,0,0.321,0.242,0.321,0.322c0,0.2-3.417,2.733-6.673,2.733
						c-3.298,0-8.205-1.608-8.205-8.323c0-5.668,3.821-9.046,7.48-9.046c2.091,0,4.664,1.327,6.111,3.016
						c0.683,0.803,1.327,1.77,1.327,2.09C112.451,20,111.888,20.16,110.803,20.401"/>
				</g>
			</g>
			<g>
				<path fill="#FFFFFF" d="M129.016,16.1c-0.885,0-2.654,4.825-5.83,12.545c-2.535,6.15-4.344,9.408-5.629,12.062
					c-0.442,0.885-0.925,0.924-1.81,1.045c-1.205,0.16-1.487,0.482-2.371,0.482c-0.685,0-1.086-0.201-1.086-0.402
					c0-0.24,1.889-0.482,3.256-2.211c1.447-1.809,4.905-6.554,4.905-7.76c0-0.443-3.216-7.882-5.428-13.108
					c-1.005-2.412-1.287-2.613-2.011-2.613c-0.804,0-0.844-0.04-0.844-0.402c0-0.361,0.121-0.562,0.844-0.562
					c1.125,0,1.407,0.08,2.373,0.08c1.125,0,2.533-0.121,3.819-0.121c0.845,0,1.006,0.161,1.006,0.604
					c0,0.362-0.161,0.402-1.006,0.402c-0.964,0-1.206,0.242-1.206,1.166c0,1.166,1.044,2.573,3.457,8.765
					c0.323,0.844,0.805,1.529,0.966,1.529c0.281,0,0.522-0.563,1.165-2.455c0.965-2.894,2.413-7.076,2.413-7.638
					c0-1.206,0-1.447-1.367-1.447c-1.246,0-1.407,0-1.407-0.403c0-0.523,0.121-0.523,0.845-0.523c1.086,0,1.809,0.081,2.895,0.081
					c0.604,0,1.689-0.161,2.252-0.161c0.644,0,0.845,0.039,0.845,0.483C130.062,15.898,129.498,16.1,129.016,16.1"/>
			</g>
		</g>
	</g>
	<g>
		<g>
			<path fill="#07B4E5" d="M174.411,30.846c-0.419,0.745-0.513,1.49-0.931,1.49c-0.746,0-5.354-0.094-7.589-0.094H152.67
				c-0.605,0-0.932-0.232-0.932-0.697c0-0.513,0.373-0.699,1.77-0.699c1.723,0,1.816-0.047,1.816-1.257V7.848
				c0-2.375,0-2.7-2.096-2.7c-2.095,0-2.095-0.14-2.095-0.559c0-0.652,0.187-0.745,1.117-0.745h13.128
				c6.938,0,8.334-0.419,8.706-0.419c0.326,0,0.326,0.14,0.326,0.419c0,0.559-0.698,2.002-0.698,2.793
				c0,0.373-0.094,0.884-0.466,0.884c-0.419,0-0.559-0.605-0.651-0.838c-0.232-0.559-1.443-1.396-8.102-1.396
				c-4.282,0-4.516,0-4.516,0.792v9.59c0,0.651,0.326,0.745,0.699,0.745h8.984c1.117,0,1.164-0.14,1.164-2.048
				c0-1.117,0.232-1.21,0.791-1.21c0.279,0,0.326,0.233,0.326,0.698c0,0.652-0.14,2.281-0.14,3.492c0,1.862,0.14,3.166,0.14,3.957
				c0,0.559-0.047,0.838-0.326,0.838c-0.559,0-0.884-0.046-0.884-2.979c0-0.931-0.047-1.024-1.583-1.024h-8.426
				c-0.559,0-0.746,0.186-0.746,0.698v9.916c0,2.002,0.746,2.188,2.422,2.188c10.893,0,12.15-2.654,13.082-2.654
				c0.186,0,0.186,0.047,0.186,0.187S174.783,30.148,174.411,30.846z"/>
			<path fill="#07B4E5" d="M200.432,30.846c-0.418,0.745-0.512,1.49-0.931,1.49c-0.745,0-5.354-0.094-7.589-0.094h-13.221
				c-0.605,0-0.932-0.232-0.932-0.697c0-0.513,0.373-0.699,1.77-0.699c1.723,0,1.815-0.047,1.815-1.257V7.848
				c0-2.375,0-2.7-2.095-2.7c-2.096,0-2.096-0.14-2.096-0.559c0-0.652,0.187-0.745,1.117-0.745H191.4
				c6.937,0,8.334-0.419,8.705-0.419c0.326,0,0.326,0.14,0.326,0.419c0,0.559-0.697,2.002-0.697,2.793
				c0,0.373-0.094,0.884-0.467,0.884c-0.418,0-0.559-0.605-0.651-0.838c-0.232-0.559-1.442-1.396-8.101-1.396
				c-4.283,0-4.516,0-4.516,0.792v9.59c0,0.651,0.326,0.745,0.698,0.745h8.985c1.117,0,1.164-0.14,1.164-2.048
				c0-1.117,0.232-1.21,0.791-1.21c0.279,0,0.326,0.233,0.326,0.698c0,0.652-0.141,2.281-0.141,3.492
				c0,1.862,0.141,3.166,0.141,3.957c0,0.559-0.047,0.838-0.326,0.838c-0.559,0-0.885-0.046-0.885-2.979
				c0-0.931-0.047-1.024-1.582-1.024h-8.427c-0.56,0-0.745,0.186-0.745,0.698v9.916c0,2.002,0.745,2.188,2.421,2.188
				c10.894,0,12.151-2.654,13.082-2.654c0.187,0,0.187,0.047,0.187,0.187S200.805,30.148,200.432,30.846z"/>
			<path fill="#FCB323" d="M217.515,32.708c-8.38,0-14.246-4.189-14.246-13.547c0-9.311,6.844-15.828,19.879-15.828
				c3.725,0,5.913,0.698,6.61,0.698c0.141,0,0.605,0.279,0.605,0.512c0,0.605-0.279,1.63-0.279,3.631
				c0,0.233-0.279,0.373-0.465,0.373c-0.326,0-0.42-0.465-0.513-0.838c-0.279-1.49-3.538-3.073-8.473-3.073
				c-8.101,0-12.616,5.586-12.616,14.013c0,7.496,4.516,12.755,12.104,12.755c5.587,0,8.752-3.305,8.985-4.469
				c0.14-0.605,0.419-1.583,0.745-1.583c0.14,0,0.186,0.513,0.419,0.978c0.325,0.699,0.884,1.537,0.884,1.77
				C231.154,28.519,226.872,32.708,217.515,32.708z"/>
			<path fill="#FCB323" d="M243.07,32.568c-4.842,0-8.008-1.676-8.008-2.561c0-3.072-0.326-4.702-0.326-5.26
				c0-0.326,0.232-1.071,0.605-1.071c0.791,0,1.304,3.444,1.49,3.724c0.418,0.699,1.535,4.145,6.471,4.145
				c5.68,0,6.937-3.632,6.937-5.68c0-2.096-1.396-3.446-7.448-5.634c-4.889-1.769-7.03-4.236-7.03-8.38
				c0-5.167,4.655-8.333,10.335-8.333c2.934,0,4.795,0.465,4.842,0.931c0.047,0.373,0.559,3.119,0.559,3.538
				c0,0.326,0.047,0.884-0.186,0.884c-0.466,0-0.838-0.512-0.979-0.838c-0.139-0.326-0.139-0.884-0.697-1.396
				c-0.652-0.559-2.328-1.396-5.168-1.396c-4.609,0-6.332,2.607-6.332,4.562c0,2.607,0.932,3.818,6.751,5.959
				c4.003,1.49,7.821,2.793,7.821,8.427C252.707,28.426,249.773,32.568,243.07,32.568z"/>
		</g>
	</g>
	<g>
		<g>
			<path fill="#FFFFFF" d="M8.573,52.104H3.992v-7.955h4.582v1.383H5.679v1.746h2.693v1.382H5.679v2.052h2.895V52.104z"/>
			<path fill="#FFFFFF" d="M11.695,52.104h-1.66v-8.467h1.66V52.104z"/>
			<path fill="#FFFFFF" d="M16.122,52.213c-0.979,0-1.745-0.271-2.296-0.811c-0.551-0.541-0.827-1.307-0.827-2.297
				c0-1.02,0.255-1.807,0.765-2.364c0.509-0.557,1.214-0.835,2.114-0.835c0.86,0,1.529,0.244,2.008,0.734
				c0.479,0.49,0.718,1.166,0.718,2.029v0.806H14.68c0.019,0.472,0.158,0.84,0.419,1.104c0.261,0.265,0.628,0.396,1.099,0.396
				c0.367,0,0.713-0.037,1.04-0.113c0.326-0.076,0.667-0.197,1.023-0.365v1.285c-0.291,0.145-0.601,0.252-0.931,0.323
				C17,52.177,16.598,52.213,16.122,52.213z M15.888,47.087c-0.352,0-0.627,0.111-0.827,0.335c-0.199,0.223-0.313,0.539-0.343,0.949
				h2.329c-0.007-0.41-0.114-0.727-0.321-0.949C16.52,47.198,16.24,47.087,15.888,47.087z"/>
			<path fill="#FFFFFF" d="M22.356,52.213c-1.894,0-2.84-1.039-2.84-3.118c0-1.034,0.258-1.823,0.773-2.37
				c0.515-0.545,1.253-0.818,2.214-0.818c0.704,0,1.335,0.138,1.894,0.414l-0.49,1.283c-0.261-0.105-0.504-0.191-0.729-0.258
				c-0.225-0.067-0.45-0.102-0.675-0.102c-0.863,0-1.295,0.613-1.295,1.84c0,1.189,0.432,1.784,1.295,1.784
				c0.319,0,0.615-0.042,0.887-0.128c0.272-0.085,0.544-0.219,0.816-0.399v1.42c-0.269,0.171-0.54,0.288-0.813,0.354
				S22.773,52.213,22.356,52.213z"/>
			<path fill="#FFFFFF" d="M28.111,50.891c0.291,0,0.639-0.064,1.045-0.191v1.236c-0.414,0.184-0.921,0.277-1.523,0.277
				c-0.664,0-1.147-0.168-1.45-0.504s-0.454-0.839-0.454-1.51v-2.933h-0.794v-0.702l0.914-0.555l0.479-1.284h1.061v1.295h1.703
				v1.246h-1.703v2.933c0,0.236,0.066,0.41,0.199,0.522S27.894,50.891,28.111,50.891z"/>
			<path fill="#FFFFFF" d="M33.714,45.906c0.225,0,0.412,0.016,0.561,0.049l-0.125,1.557c-0.134-0.037-0.297-0.055-0.49-0.055
				c-0.53,0-0.942,0.136-1.238,0.408c-0.296,0.271-0.443,0.652-0.443,1.143v3.096h-1.66v-6.083h1.257l0.245,1.022h0.082
				c0.188-0.34,0.443-0.615,0.764-0.824C32.988,46.01,33.337,45.906,33.714,45.906z"/>
			<path fill="#FFFFFF" d="M35.241,44.447c0-0.539,0.301-0.811,0.903-0.811s0.903,0.271,0.903,0.811
				c0,0.258-0.076,0.459-0.226,0.602c-0.15,0.144-0.376,0.215-0.677,0.215C35.542,45.264,35.241,44.992,35.241,44.447z
				 M36.972,52.104h-1.66v-6.083h1.66V52.104z"/>
			<path fill="#FFFFFF" d="M41.116,52.213c-1.894,0-2.84-1.039-2.84-3.118c0-1.034,0.258-1.823,0.773-2.37
				c0.515-0.545,1.253-0.818,2.214-0.818c0.704,0,1.335,0.138,1.894,0.414l-0.49,1.283c-0.261-0.105-0.504-0.191-0.729-0.258
				c-0.225-0.067-0.45-0.102-0.675-0.102c-0.863,0-1.295,0.613-1.295,1.84c0,1.189,0.432,1.784,1.295,1.784
				c0.319,0,0.615-0.042,0.887-0.128c0.272-0.085,0.544-0.219,0.816-0.399v1.42c-0.269,0.171-0.54,0.288-0.813,0.354
				S41.533,52.213,41.116,52.213z"/>
			<path fill="#FFFFFF" d="M48.172,52.104l-0.321-0.827h-0.043c-0.279,0.353-0.567,0.596-0.862,0.731
				c-0.296,0.137-0.681,0.205-1.156,0.205c-0.584,0-1.044-0.168-1.379-0.501c-0.335-0.334-0.503-0.81-0.503-1.426
				c0-0.646,0.226-1.122,0.678-1.429s1.132-0.476,2.043-0.508l1.056-0.033V48.05c0-0.616-0.316-0.925-0.947-0.925
				c-0.486,0-1.058,0.146-1.714,0.441l-0.55-1.121c0.7-0.367,1.477-0.55,2.329-0.55c0.816,0,1.441,0.178,1.877,0.533
				c0.435,0.355,0.653,0.896,0.653,1.621v4.054H48.172z M47.682,49.285l-0.642,0.021c-0.482,0.015-0.842,0.102-1.078,0.262
				c-0.236,0.159-0.354,0.402-0.354,0.729c0,0.469,0.269,0.702,0.805,0.702c0.385,0,0.692-0.11,0.922-0.332s0.346-0.515,0.346-0.882
				V49.285z"/>
			<path fill="#FFFFFF" d="M52.632,52.104h-1.66v-8.467h1.66V52.104z"/>
			<path fill="#FFFFFF" d="M61.846,52.104h-4.582v-7.955h4.582v1.383h-2.895v1.746h2.693v1.382h-2.693v2.052h2.895V52.104z"/>
			<path fill="#FFFFFF" d="M68.923,52.104h-1.66v-3.553c0-0.439-0.078-0.768-0.234-0.988c-0.156-0.219-0.405-0.328-0.746-0.328
				c-0.464,0-0.8,0.154-1.006,0.465c-0.207,0.311-0.31,0.824-0.31,1.543v2.861h-1.66v-6.083h1.268l0.223,0.778h0.093
				c0.185-0.294,0.439-0.516,0.764-0.667c0.325-0.15,0.694-0.226,1.107-0.226c0.708,0,1.244,0.191,1.61,0.574
				c0.367,0.383,0.55,0.935,0.55,1.656V52.104z"/>
			<path fill="#FFFFFF" d="M75.858,46.021v0.843l-0.952,0.245c0.174,0.272,0.261,0.577,0.261,0.915c0,0.652-0.228,1.161-0.683,1.525
				c-0.456,0.365-1.087,0.547-1.896,0.547l-0.299-0.016l-0.245-0.027c-0.17,0.13-0.256,0.275-0.256,0.435
				c0,0.239,0.305,0.359,0.914,0.359h1.034c0.667,0,1.176,0.144,1.526,0.43s0.525,0.708,0.525,1.263
				c0,0.711-0.296,1.262-0.889,1.654c-0.593,0.391-1.445,0.587-2.555,0.587c-0.849,0-1.498-0.147-1.945-0.443
				c-0.448-0.296-0.672-0.71-0.672-1.243c0-0.366,0.114-0.673,0.343-0.92c0.229-0.246,0.564-0.422,1.006-0.527
				c-0.17-0.072-0.319-0.191-0.446-0.356s-0.19-0.34-0.19-0.524c0-0.232,0.067-0.426,0.201-0.58s0.328-0.306,0.582-0.454
				c-0.319-0.138-0.572-0.359-0.759-0.664c-0.187-0.305-0.28-0.663-0.28-1.077c0-0.664,0.216-1.178,0.647-1.54
				s1.048-0.544,1.85-0.544c0.17,0,0.373,0.016,0.606,0.047c0.234,0.03,0.384,0.053,0.449,0.067H75.858z M71.163,52.963
				c0,0.229,0.109,0.408,0.329,0.539c0.219,0.131,0.527,0.195,0.922,0.195c0.595,0,1.061-0.081,1.398-0.244
				c0.337-0.164,0.506-0.387,0.506-0.67c0-0.229-0.1-0.386-0.299-0.473c-0.2-0.088-0.508-0.131-0.925-0.131h-0.86
				c-0.305,0-0.56,0.072-0.765,0.215C71.265,52.538,71.163,52.728,71.163,52.963z M71.767,48.012c0,0.33,0.075,0.592,0.226,0.783
				c0.15,0.193,0.38,0.289,0.688,0.289c0.312,0,0.54-0.096,0.686-0.289c0.145-0.191,0.217-0.453,0.217-0.783
				c0-0.732-0.301-1.1-0.903-1.1C72.072,46.912,71.767,47.279,71.767,48.012z"/>
			<path fill="#FFFFFF" d="M76.722,44.447c0-0.539,0.301-0.811,0.903-0.811s0.903,0.271,0.903,0.811
				c0,0.258-0.076,0.459-0.226,0.602c-0.15,0.144-0.376,0.215-0.677,0.215C77.023,45.264,76.722,44.992,76.722,44.447z
				 M78.453,52.104h-1.66v-6.083h1.66V52.104z"/>
			<path fill="#FFFFFF" d="M85.742,52.104h-1.66v-3.553c0-0.439-0.078-0.768-0.234-0.988c-0.156-0.219-0.405-0.328-0.746-0.328
				c-0.464,0-0.8,0.154-1.006,0.465c-0.207,0.311-0.31,0.824-0.31,1.543v2.861h-1.66v-6.083h1.268l0.223,0.778h0.093
				c0.185-0.294,0.439-0.516,0.764-0.667c0.325-0.15,0.694-0.226,1.107-0.226c0.708,0,1.244,0.191,1.61,0.574
				c0.367,0.383,0.55,0.935,0.55,1.656V52.104z"/>
			<path fill="#FFFFFF" d="M90.136,52.213c-0.979,0-1.745-0.271-2.296-0.811c-0.551-0.541-0.827-1.307-0.827-2.297
				c0-1.02,0.255-1.807,0.765-2.364c0.509-0.557,1.214-0.835,2.114-0.835c0.86,0,1.529,0.244,2.008,0.734
				c0.479,0.49,0.718,1.166,0.718,2.029v0.806h-3.923c0.019,0.472,0.158,0.84,0.419,1.104c0.261,0.265,0.628,0.396,1.099,0.396
				c0.367,0,0.713-0.037,1.04-0.113c0.326-0.076,0.667-0.197,1.023-0.365v1.285c-0.291,0.145-0.601,0.252-0.931,0.323
				C91.014,52.177,90.612,52.213,90.136,52.213z M89.902,47.087c-0.352,0-0.627,0.111-0.827,0.335
				c-0.199,0.223-0.313,0.539-0.343,0.949h2.329c-0.007-0.41-0.114-0.727-0.321-0.949C90.534,47.198,90.254,47.087,89.902,47.087z"
				/>
			<path fill="#FFFFFF" d="M96.653,52.213c-0.979,0-1.745-0.271-2.296-0.811c-0.551-0.541-0.827-1.307-0.827-2.297
				c0-1.02,0.255-1.807,0.765-2.364c0.509-0.557,1.214-0.835,2.114-0.835c0.86,0,1.529,0.244,2.008,0.734
				c0.479,0.49,0.718,1.166,0.718,2.029v0.806h-3.923c0.019,0.472,0.158,0.84,0.419,1.104c0.261,0.265,0.628,0.396,1.099,0.396
				c0.367,0,0.713-0.037,1.04-0.113c0.326-0.076,0.667-0.197,1.023-0.365v1.285c-0.291,0.145-0.601,0.252-0.931,0.323
				C97.531,52.177,97.129,52.213,96.653,52.213z M96.419,47.087c-0.352,0-0.627,0.111-0.827,0.335
				c-0.199,0.223-0.313,0.539-0.343,0.949h2.329c-0.007-0.41-0.114-0.727-0.321-0.949C97.051,47.198,96.771,47.087,96.419,47.087z"
				/>
			<path fill="#FFFFFF" d="M103.812,45.906c0.225,0,0.412,0.016,0.561,0.049l-0.125,1.557c-0.134-0.037-0.297-0.055-0.49-0.055
				c-0.53,0-0.942,0.136-1.238,0.408c-0.296,0.271-0.443,0.652-0.443,1.143v3.096h-1.66v-6.083h1.257l0.245,1.022H102
				c0.188-0.34,0.443-0.615,0.764-0.824C103.086,46.01,103.435,45.906,103.812,45.906z"/>
			<path fill="#FFFFFF" d="M105.339,44.447c0-0.539,0.301-0.811,0.903-0.811s0.903,0.271,0.903,0.811
				c0,0.258-0.076,0.459-0.226,0.602c-0.15,0.144-0.376,0.215-0.677,0.215C105.641,45.264,105.339,44.992,105.339,44.447z
				 M107.07,52.104h-1.66v-6.083h1.66V52.104z"/>
			<path fill="#FFFFFF" d="M114.359,52.104h-1.66v-3.553c0-0.439-0.078-0.768-0.234-0.988c-0.156-0.219-0.405-0.328-0.746-0.328
				c-0.464,0-0.8,0.154-1.006,0.465c-0.207,0.311-0.31,0.824-0.31,1.543v2.861h-1.66v-6.083h1.268l0.223,0.778h0.093
				c0.185-0.294,0.439-0.516,0.764-0.667c0.325-0.15,0.694-0.226,1.107-0.226c0.708,0,1.244,0.191,1.61,0.574
				c0.367,0.383,0.55,0.935,0.55,1.656V52.104z"/>
			<path fill="#FFFFFF" d="M121.295,46.021v0.843l-0.952,0.245c0.174,0.272,0.261,0.577,0.261,0.915
				c0,0.652-0.228,1.161-0.683,1.525c-0.456,0.365-1.087,0.547-1.896,0.547l-0.299-0.016l-0.245-0.027
				c-0.17,0.13-0.256,0.275-0.256,0.435c0,0.239,0.305,0.359,0.914,0.359h1.034c0.667,0,1.176,0.144,1.526,0.43
				s0.525,0.708,0.525,1.263c0,0.711-0.296,1.262-0.889,1.654c-0.593,0.391-1.445,0.587-2.555,0.587
				c-0.849,0-1.498-0.147-1.945-0.443c-0.448-0.296-0.672-0.71-0.672-1.243c0-0.366,0.114-0.673,0.343-0.92
				c0.229-0.246,0.564-0.422,1.006-0.527c-0.17-0.072-0.319-0.191-0.446-0.356s-0.19-0.34-0.19-0.524
				c0-0.232,0.067-0.426,0.201-0.58s0.328-0.306,0.582-0.454c-0.319-0.138-0.572-0.359-0.759-0.664
				c-0.187-0.305-0.28-0.663-0.28-1.077c0-0.664,0.216-1.178,0.647-1.54s1.048-0.544,1.85-0.544c0.17,0,0.373,0.016,0.606,0.047
				c0.234,0.03,0.384,0.053,0.449,0.067H121.295z M116.6,52.963c0,0.229,0.109,0.408,0.329,0.539
				c0.219,0.131,0.527,0.195,0.922,0.195c0.595,0,1.061-0.081,1.398-0.244c0.337-0.164,0.506-0.387,0.506-0.67
				c0-0.229-0.1-0.386-0.299-0.473c-0.2-0.088-0.508-0.131-0.925-0.131h-0.86c-0.305,0-0.56,0.072-0.765,0.215
				C116.702,52.538,116.6,52.728,116.6,52.963z M117.204,48.012c0,0.33,0.075,0.592,0.226,0.783c0.15,0.193,0.38,0.289,0.688,0.289
				c0.312,0,0.54-0.096,0.686-0.289c0.145-0.191,0.217-0.453,0.217-0.783c0-0.732-0.301-1.1-0.903-1.1
				C117.508,46.912,117.204,47.279,117.204,48.012z"/>
			<path fill="#FFFFFF" d="M128.92,52.104l-0.321-0.827h-0.043c-0.279,0.353-0.567,0.596-0.862,0.731
				c-0.296,0.137-0.681,0.205-1.156,0.205c-0.584,0-1.044-0.168-1.379-0.501c-0.335-0.334-0.503-0.81-0.503-1.426
				c0-0.646,0.226-1.122,0.678-1.429s1.132-0.476,2.043-0.508l1.056-0.033V48.05c0-0.616-0.316-0.925-0.947-0.925
				c-0.486,0-1.058,0.146-1.714,0.441l-0.55-1.121c0.7-0.367,1.477-0.55,2.329-0.55c0.816,0,1.441,0.178,1.877,0.533
				c0.435,0.355,0.653,0.896,0.653,1.621v4.054H128.92z M128.431,49.285l-0.642,0.021c-0.482,0.015-0.842,0.102-1.078,0.262
				c-0.236,0.159-0.354,0.402-0.354,0.729c0,0.469,0.269,0.702,0.805,0.702c0.385,0,0.692-0.11,0.922-0.332s0.346-0.515,0.346-0.882
				V49.285z"/>
			<path fill="#FFFFFF" d="M137.336,52.104h-1.66v-3.553c0-0.439-0.078-0.768-0.233-0.988c-0.156-0.219-0.405-0.328-0.745-0.328
				c-0.465,0-0.8,0.154-1.007,0.465c-0.207,0.311-0.31,0.824-0.31,1.543v2.861h-1.66v-6.083h1.268l0.223,0.778h0.093
				c0.185-0.294,0.439-0.516,0.764-0.667c0.324-0.15,0.693-0.226,1.107-0.226c0.707,0,1.244,0.191,1.61,0.574s0.55,0.935,0.55,1.656
				V52.104z"/>
			<path fill="#FFFFFF" d="M140.904,52.213c-0.715,0-1.276-0.277-1.685-0.833s-0.612-1.324-0.612-2.308
				c0-0.997,0.207-1.773,0.623-2.331c0.416-0.557,0.988-0.835,1.717-0.835c0.766,0,1.35,0.297,1.752,0.893h0.055
				c-0.084-0.453-0.125-0.857-0.125-1.214v-1.948h1.664v8.467h-1.273l-0.32-0.789h-0.07
				C142.251,51.913,141.676,52.213,140.904,52.213z M141.486,50.891c0.424,0,0.734-0.123,0.933-0.371
				c0.198-0.246,0.306-0.665,0.323-1.256v-0.18c0-0.653-0.1-1.121-0.301-1.404c-0.202-0.283-0.529-0.424-0.982-0.424
				c-0.37,0-0.658,0.156-0.863,0.471c-0.205,0.313-0.307,0.77-0.307,1.368s0.104,1.048,0.311,1.347
				C140.806,50.74,141.102,50.891,141.486,50.891z"/>
			<path fill="#FFFFFF" d="M152.299,45.438c-0.635,0-1.125,0.238-1.474,0.716c-0.349,0.477-0.522,1.141-0.522,1.994
				c0,1.773,0.666,2.66,1.996,2.66c0.559,0,1.236-0.14,2.03-0.419v1.415c-0.653,0.271-1.382,0.408-2.188,0.408
				c-1.157,0-2.042-0.352-2.655-1.053c-0.613-0.703-0.92-1.71-0.92-3.023c0-0.826,0.15-1.551,0.452-2.174
				c0.301-0.621,0.733-1.099,1.298-1.431s1.225-0.497,1.982-0.497c0.773,0,1.549,0.186,2.33,0.56l-0.545,1.371
				c-0.297-0.142-0.597-0.265-0.897-0.37C152.885,45.49,152.59,45.438,152.299,45.438z"/>
			<path fill="#FFFFFF" d="M161.352,49.051c0,0.99-0.261,1.766-0.783,2.324s-1.25,0.838-2.182,0.838c-0.584,0-1.1-0.129-1.545-0.385
				c-0.447-0.255-0.789-0.623-1.029-1.102c-0.239-0.479-0.359-1.037-0.359-1.676c0-0.994,0.26-1.766,0.779-2.317
				c0.518-0.552,1.247-0.827,2.187-0.827c0.584,0,1.099,0.127,1.546,0.381c0.445,0.254,0.789,0.619,1.027,1.094
				C161.232,47.855,161.352,48.412,161.352,49.051z M157.146,49.051c0,0.603,0.098,1.058,0.296,1.366
				c0.198,0.308,0.52,0.462,0.966,0.462c0.442,0,0.761-0.152,0.955-0.459c0.193-0.307,0.291-0.764,0.291-1.369
				c0-0.602-0.098-1.053-0.294-1.354s-0.517-0.452-0.963-0.452c-0.442,0-0.762,0.15-0.958,0.449
				C157.244,47.992,157.146,48.445,157.146,49.051z"/>
			<path fill="#FFFFFF" d="M168.103,52.104h-1.659v-3.553c0-0.439-0.074-0.768-0.221-0.988c-0.146-0.219-0.378-0.328-0.693-0.328
				c-0.425,0-0.732,0.155-0.926,0.467c-0.191,0.312-0.287,0.826-0.287,1.541v2.861h-1.66v-6.083h1.268l0.223,0.778h0.094
				c0.162-0.279,0.398-0.498,0.707-0.656s0.662-0.236,1.061-0.236c0.91,0,1.527,0.297,1.85,0.893h0.147
				c0.163-0.283,0.403-0.503,0.721-0.658c0.317-0.156,0.676-0.234,1.075-0.234c0.688,0,1.21,0.177,1.564,0.53
				c0.354,0.354,0.529,0.921,0.529,1.7v3.967h-1.664v-3.553c0-0.439-0.074-0.768-0.221-0.988c-0.146-0.219-0.378-0.328-0.693-0.328
				c-0.406,0-0.711,0.145-0.912,0.435s-0.302,0.751-0.302,1.382V52.104z"/>
			<path fill="#FFFFFF" d="M176.872,52.213c-0.715,0-1.274-0.26-1.681-0.779h-0.088c0.059,0.509,0.088,0.803,0.088,0.883v2.464
				h-1.66v-8.76h1.35l0.234,0.789h0.076c0.387-0.603,0.963-0.903,1.725-0.903c0.718,0,1.279,0.277,1.686,0.832
				s0.609,1.326,0.609,2.312c0,0.65-0.095,1.214-0.285,1.692c-0.19,0.479-0.461,0.843-0.812,1.094
				C177.761,52.088,177.348,52.213,176.872,52.213z M176.383,47.234c-0.41,0-0.709,0.125-0.898,0.377
				c-0.188,0.253-0.287,0.669-0.293,1.25v0.179c0,0.653,0.096,1.121,0.291,1.403c0.193,0.283,0.501,0.425,0.922,0.425
				c0.743,0,1.115-0.612,1.115-1.839c0-0.599-0.092-1.047-0.275-1.347C177.062,47.383,176.773,47.234,176.383,47.234z"/>
			<path fill="#FFFFFF" d="M184.825,52.104l-0.223-0.777h-0.087c-0.178,0.282-0.43,0.501-0.757,0.654
				c-0.326,0.154-0.698,0.232-1.115,0.232c-0.715,0-1.253-0.191-1.616-0.574s-0.544-0.934-0.544-1.652v-3.966h1.659v3.553
				c0,0.438,0.078,0.769,0.234,0.987c0.156,0.22,0.404,0.33,0.746,0.33c0.463,0,0.799-0.156,1.006-0.466s0.311-0.824,0.311-1.542
				v-2.862h1.659v6.083H184.825z"/>
			<path fill="#FFFFFF" d="M190.336,50.891c0.29,0,0.639-0.064,1.045-0.191v1.236c-0.414,0.184-0.922,0.277-1.523,0.277
				c-0.664,0-1.148-0.168-1.451-0.504s-0.453-0.839-0.453-1.51v-2.933h-0.795v-0.702l0.914-0.555l0.479-1.284h1.061v1.295h1.703
				v1.246h-1.703v2.933c0,0.236,0.066,0.41,0.199,0.522S190.118,50.891,190.336,50.891z"/>
			<path fill="#FFFFFF" d="M195.296,52.213c-0.979,0-1.745-0.271-2.296-0.811c-0.551-0.541-0.827-1.307-0.827-2.297
				c0-1.02,0.255-1.807,0.765-2.364c0.51-0.557,1.214-0.835,2.113-0.835c0.86,0,1.529,0.244,2.008,0.734s0.719,1.166,0.719,2.029
				v0.806h-3.924c0.02,0.472,0.158,0.84,0.42,1.104c0.261,0.265,0.627,0.396,1.099,0.396c0.366,0,0.713-0.037,1.04-0.113
				c0.326-0.076,0.667-0.197,1.022-0.365v1.285c-0.29,0.145-0.601,0.252-0.931,0.323C196.174,52.177,195.771,52.213,195.296,52.213z
				 M195.062,47.087c-0.352,0-0.628,0.111-0.828,0.335c-0.199,0.223-0.312,0.539-0.342,0.949h2.328
				c-0.007-0.41-0.113-0.727-0.32-0.949C195.693,47.198,195.414,47.087,195.062,47.087z"/>
			<path fill="#FFFFFF" d="M202.455,45.906c0.225,0,0.411,0.016,0.561,0.049l-0.125,1.557c-0.135-0.037-0.298-0.055-0.49-0.055
				c-0.529,0-0.942,0.136-1.238,0.408c-0.295,0.271-0.443,0.652-0.443,1.143v3.096h-1.659v-6.083h1.257l0.244,1.022h0.082
				c0.189-0.34,0.443-0.615,0.765-0.824S202.078,45.906,202.455,45.906z"/>
			<path fill="#FFFFFF" d="M211.707,49.895c0,0.719-0.258,1.284-0.775,1.697c-0.518,0.414-1.236,0.621-2.157,0.621
				c-0.849,0-1.6-0.16-2.253-0.479v-1.567c0.537,0.24,0.991,0.408,1.363,0.506c0.371,0.099,0.712,0.147,1.02,0.147
				c0.371,0,0.654-0.071,0.852-0.212c0.198-0.142,0.297-0.352,0.297-0.631c0-0.156-0.043-0.295-0.131-0.416
				c-0.086-0.122-0.215-0.239-0.383-0.352c-0.169-0.112-0.513-0.292-1.031-0.539c-0.486-0.229-0.851-0.447-1.094-0.658
				c-0.243-0.21-0.438-0.455-0.582-0.734c-0.146-0.279-0.218-0.605-0.218-0.979c0-0.704,0.238-1.257,0.716-1.659
				c0.477-0.402,1.136-0.604,1.978-0.604c0.413,0,0.808,0.049,1.183,0.146c0.376,0.098,0.769,0.235,1.179,0.413l-0.544,1.312
				c-0.425-0.174-0.775-0.296-1.053-0.365c-0.277-0.068-0.551-0.103-0.819-0.103c-0.319,0-0.563,0.074-0.734,0.223
				c-0.171,0.149-0.256,0.343-0.256,0.583c0,0.148,0.034,0.277,0.104,0.389c0.069,0.11,0.179,0.217,0.329,0.32
				s0.507,0.289,1.069,0.559c0.743,0.355,1.253,0.711,1.528,1.068C211.569,48.938,211.707,49.376,211.707,49.895z"/>
			<path fill="#FFFFFF" d="M215.422,52.213c-1.894,0-2.84-1.039-2.84-3.118c0-1.034,0.258-1.823,0.772-2.37
				c0.515-0.545,1.253-0.818,2.214-0.818c0.704,0,1.336,0.138,1.895,0.414l-0.49,1.283c-0.262-0.105-0.504-0.191-0.729-0.258
				c-0.226-0.067-0.451-0.102-0.676-0.102c-0.863,0-1.295,0.613-1.295,1.84c0,1.189,0.432,1.784,1.295,1.784
				c0.319,0,0.615-0.042,0.887-0.128c0.272-0.085,0.545-0.219,0.816-0.399v1.42c-0.268,0.171-0.539,0.288-0.812,0.354
				C216.185,52.18,215.839,52.213,215.422,52.213z"/>
			<path fill="#FFFFFF" d="M218.543,44.447c0-0.539,0.302-0.811,0.904-0.811c0.602,0,0.902,0.271,0.902,0.811
				c0,0.258-0.075,0.459-0.226,0.602c-0.15,0.144-0.376,0.215-0.677,0.215C218.845,45.264,218.543,44.992,218.543,44.447z
				 M220.273,52.104h-1.659v-6.083h1.659V52.104z"/>
			<path fill="#FFFFFF" d="M224.701,52.213c-0.979,0-1.745-0.271-2.297-0.811c-0.551-0.541-0.826-1.307-0.826-2.297
				c0-1.02,0.254-1.807,0.764-2.364c0.51-0.557,1.215-0.835,2.114-0.835c0.86,0,1.528,0.244,2.008,0.734
				c0.479,0.49,0.718,1.166,0.718,2.029v0.806h-3.923c0.019,0.472,0.158,0.84,0.419,1.104c0.262,0.265,0.628,0.396,1.1,0.396
				c0.366,0,0.713-0.037,1.039-0.113s0.668-0.197,1.023-0.365v1.285c-0.291,0.145-0.602,0.252-0.932,0.323
				C225.578,52.177,225.176,52.213,224.701,52.213z M224.467,47.087c-0.352,0-0.627,0.111-0.827,0.335
				c-0.199,0.223-0.313,0.539-0.343,0.949h2.329c-0.007-0.41-0.114-0.727-0.321-0.949C225.098,47.198,224.818,47.087,224.467,47.087
				z"/>
			<path fill="#FFFFFF" d="M234.08,52.104h-1.66v-3.553c0-0.439-0.078-0.768-0.233-0.988c-0.156-0.219-0.405-0.328-0.745-0.328
				c-0.465,0-0.801,0.154-1.007,0.465c-0.207,0.311-0.31,0.824-0.31,1.543v2.861h-1.66v-6.083h1.268l0.223,0.778h0.094
				c0.184-0.294,0.439-0.516,0.764-0.667c0.324-0.15,0.693-0.226,1.107-0.226c0.707,0,1.244,0.191,1.61,0.574s0.55,0.935,0.55,1.656
				V52.104z"/>
			<path fill="#FFFFFF" d="M238.191,52.213c-1.893,0-2.84-1.039-2.84-3.118c0-1.034,0.258-1.823,0.773-2.37
				c0.514-0.545,1.252-0.818,2.214-0.818c0.704,0,1.335,0.138,1.894,0.414l-0.49,1.283c-0.261-0.105-0.504-0.191-0.729-0.258
				c-0.225-0.067-0.45-0.102-0.675-0.102c-0.863,0-1.295,0.613-1.295,1.84c0,1.189,0.432,1.784,1.295,1.784
				c0.319,0,0.614-0.042,0.887-0.128c0.272-0.085,0.544-0.219,0.816-0.399v1.42c-0.269,0.171-0.54,0.288-0.813,0.354
				S238.609,52.213,238.191,52.213z"/>
			<path fill="#FFFFFF" d="M244.137,52.213c-0.979,0-1.744-0.271-2.296-0.811c-0.552-0.541-0.827-1.307-0.827-2.297
				c0-1.02,0.255-1.807,0.765-2.364c0.509-0.557,1.214-0.835,2.114-0.835c0.859,0,1.528,0.244,2.008,0.734
				c0.479,0.49,0.718,1.166,0.718,2.029v0.806h-3.923c0.018,0.472,0.158,0.84,0.418,1.104c0.262,0.265,0.629,0.396,1.1,0.396
				c0.367,0,0.713-0.037,1.039-0.113s0.668-0.197,1.023-0.365v1.285c-0.291,0.145-0.601,0.252-0.931,0.323
				C245.015,52.177,244.612,52.213,244.137,52.213z M243.902,47.087c-0.352,0-0.627,0.111-0.826,0.335
				c-0.199,0.223-0.314,0.539-0.344,0.949h2.33c-0.008-0.41-0.115-0.727-0.322-0.949C244.534,47.198,244.255,47.087,243.902,47.087z
				"/>
			<path fill="#FFFFFF" d="M252.145,50.297c0,0.624-0.217,1.1-0.65,1.426s-1.082,0.49-1.945,0.49c-0.441,0-0.819-0.03-1.131-0.09
				c-0.312-0.061-0.604-0.148-0.877-0.264v-1.372c0.309,0.146,0.656,0.267,1.043,0.364c0.387,0.099,0.727,0.147,1.02,0.147
				c0.603,0,0.904-0.175,0.904-0.522c0-0.131-0.041-0.236-0.121-0.318c-0.079-0.082-0.217-0.174-0.412-0.277
				c-0.197-0.104-0.458-0.225-0.784-0.361c-0.468-0.196-0.812-0.378-1.031-0.545c-0.22-0.166-0.379-0.357-0.479-0.574
				c-0.101-0.215-0.149-0.48-0.149-0.797c0-0.54,0.209-0.958,0.628-1.254c0.419-0.295,1.013-0.443,1.782-0.443
				c0.732,0,1.445,0.16,2.139,0.479l-0.501,1.197c-0.305-0.131-0.59-0.238-0.854-0.321s-0.535-0.125-0.811-0.125
				c-0.49,0-0.734,0.132-0.734,0.397c0,0.148,0.078,0.277,0.236,0.387c0.158,0.108,0.504,0.27,1.037,0.484
				c0.475,0.191,0.822,0.371,1.045,0.538c0.221,0.167,0.384,0.358,0.489,0.577C252.092,49.736,252.145,49.996,252.145,50.297z"/>
		</g>
	</g>
	<line fill="none" stroke="#FFFFFF" stroke-miterlimit="10" x1="140.695" y1="3.312" x2="140.695" y2="32.959"/>
</g>
</svg>
